<svg width="64" height="96" viewBox="0 0 64 96" fill="none" xmlns="http://www.w3.org/2000/svg">
<path fill-rule="evenodd" clip-rule="evenodd" d="M24.2517 27.8605C22.5663 30.1794 19.8985 34.1916 18.1266 37.0723C15.85 40.7735 13.6469 45.305 12.1788 49.3068C9.51822 56.5592 9.39994 65.1353 11.8672 71.9358C14.5788 79.4113 19.265 84.9662 25.7826 88.431C29.8014 90.5673 32.9688 91.3247 37.7916 91.3025C44.4007 91.2718 49.443 89.4071 54.3652 85.1732C58.6091 81.5225 61.5069 76.8915 62.9912 71.3885C64.1369 67.1402 63.9195 66.2326 62.4631 69.1843C60.9866 72.1774 60.209 73.3256 57.9675 75.8248C53.7116 80.5696 48.4561 83.3169 41.6284 84.3663C38.5445 84.8403 35.2135 84.4886 31.703 83.3178C21.6407 79.9625 15.3036 68.1587 17.3484 56.5801C18.3439 50.9447 21.7206 43.9345 27.1147 36.3058C28.3633 34.5398 29.7449 32.5593 30.1848 31.9047L30.9843 30.7151L30.3541 29.574C30.0076 28.9465 29.4033 28.0744 29.0115 27.6359C28.6197 27.1974 28.0754 26.4274 27.8019 25.9243C27.5281 25.4213 27.0838 25.0099 26.8142 25.0099C26.5446 25.0099 25.3914 26.2927 24.2517 27.8605Z" fill="url(#paint0_linear_1584_1472)"/>
<path fill-rule="evenodd" clip-rule="evenodd" d="M30.5251 3.12672C29.4107 4.55921 28.4986 5.88118 28.4986 6.0644C28.4986 6.24762 28.8025 6.74967 29.1741 7.18033C29.5458 7.61067 30.39 8.66629 31.0505 9.52598C31.711 10.3857 32.4928 11.366 32.7879 11.7044C33.6595 12.7039 43.8284 25.9729 45.4613 28.2419C46.2869 29.3888 47.2663 30.6515 47.6379 31.0476C48.0096 31.4437 48.3134 31.9258 48.3134 32.1188C48.3134 32.3118 48.4146 32.5368 48.5386 32.6186C48.9121 32.8661 48.5752 30.1889 48.5752 29.0279C48.5752 28.107 48.5752 26.6027 48.5752 25.5407C48.5752 24.2828 48.5752 23.9947 48.5752 23.1796C48.2576 22.6952 48.1484 22.2016 47.7049 21.5365C47.6938 21.1525 44.6654 16.6979 41.423 12.2954C40.4326 10.9506 38.6795 8.53002 37.5273 6.91627C36.3753 5.30251 34.7844 3.20366 33.9921 2.25203L32.5517 0.521896L30.5251 3.12672ZM24.536 10.7469C21.9357 14.0341 22.045 13.7798 22.7899 14.8119C23.1495 15.3107 24.7659 17.3323 26.382 19.3047C27.9979 21.277 30.0205 23.8444 30.8764 25.0098C31.7323 26.1753 32.7558 27.569 33.1503 28.107C33.5451 28.6449 34.5758 30.1119 35.441 31.3671C36.306 32.6222 37.2535 33.9425 37.5462 34.3012C38.5315 35.508 40.2425 38.1034 40.5746 38.895C40.7559 39.3269 41.0018 39.6803 41.121 39.6803C41.2402 39.6803 41.7013 40.4872 42.1456 41.4734C42.9923 43.3522 43.4342 43.9071 42.8599 42.3699C42.469 41.3244 42.5143 34.9822 42.9235 33.4327C43.1262 32.6659 43.0919 32.2486 42.7962 31.876C42.574 31.5962 42.0048 30.6335 41.5317 29.737C41.0582 28.8405 39.8489 26.9333 38.8441 25.4989C37.8392 24.0644 36.8905 22.6538 36.7359 22.3643C36.3663 21.6731 32.4187 16.2825 29.1231 11.9694C28.6436 11.3419 27.8898 10.3514 27.4475 9.76886C27.0056 9.18628 26.5322 8.70932 26.3959 8.70932C26.2593 8.70932 25.4222 9.62639 24.536 10.7469Z" fill="url(#paint1_linear_1584_1472)"/>
<path fill-rule="evenodd" clip-rule="evenodd" d="M51.8694 48.6405C52.0916 53.3676 51.5476 57.4033 50.2416 60.7166C49.6715 62.1634 48.9002 63.7886 48.5282 64.3281C48.1562 64.8676 47.3964 66.1893 46.8397 67.2651C44.0167 72.7206 37.8351 76.3585 32.4452 75.7359C28.8458 75.3205 24.9507 73.4385 22.8689 71.1094C21.6923 69.793 21.7677 70.5575 23.0073 72.5165C25.3025 76.144 29.3808 79.3272 33.3891 80.6198C35.137 81.1835 39.3705 81.2823 41.651 80.8125C42.4736 80.643 44.2146 79.96 45.52 79.2946C47.4342 78.3188 48.3868 77.5433 50.4475 75.283C54.7876 70.5226 56.7198 65.0815 56.3527 58.6545C56.2545 56.9352 55.9537 54.6485 55.6847 53.5727C55.1334 51.3692 53.0817 46.7167 52.2525 45.7905C51.7241 45.2001 51.7118 45.2914 51.8694 48.6405Z" fill="#0C2443"/>
<path fill-rule="evenodd" clip-rule="evenodd" d="M61.7936 51.7878C61.6261 56.2988 60.8377 63.5532 60.4402 64.243C60.3321 64.4305 60.216 64.7304 60.1823 64.9097C60.1484 65.089 59.9773 66.0172 59.8019 66.9724C59.6266 67.9276 59.406 68.8447 59.3117 69.01C59.2177 69.1756 59.2498 69.3073 59.3834 69.303C59.8518 69.288 62.1551 65.2132 62.9726 62.9537C63.7151 60.9008 63.7985 60.2624 63.8039 56.5965C63.8093 52.9852 63.7145 52.2152 62.9714 49.8317C62.5106 48.3526 62.0957 47.1422 62.0497 47.1422C62.0038 47.1422 61.8885 49.2325 61.7936 51.7878Z" fill="url(#paint2_linear_1584_1472)"/>
<path fill-rule="evenodd" clip-rule="evenodd" d="M19.4979 16.9381C19.3658 17.181 18.82 17.9514 18.2847 18.6497C13.2644 25.2035 7.47365 34.5385 4.72989 40.5009C2.80816 44.6774 1.41692 48.8761 0.477818 53.3339C-0.0670889 55.9202 0.0136705 62.7817 0.621325 65.5613C1.72135 70.5923 1.77269 70.5982 2.1885 65.7344C2.5989 60.9355 3.19575 58.6903 5.46515 53.4096C7.65168 48.3206 13.3259 37.5622 14.2731 36.7094C14.3728 36.6197 15.1291 35.4461 15.9541 34.1013C17.3907 31.7592 19.7817 28.2399 22.6449 24.2519C24.2658 21.9942 24.2232 21.5642 22.1132 18.8874C21.2888 17.8415 20.613 16.8755 20.6115 16.7412C20.607 16.3223 19.7504 16.4736 19.4979 16.9381Z" fill="url(#paint3_linear_1584_1472)"/>
<path fill-rule="evenodd" clip-rule="evenodd" d="M6.76106 57.818C6.53078 58.311 5.95554 59.9616 5.48269 61.4857C4.68409 64.0582 4.62225 64.6186 4.61745 69.3099C4.61264 74.0296 4.66669 74.5196 5.43436 76.7355C6.49415 79.7931 6.99132 80.8187 8.46332 82.9831C10.2349 85.5879 10.7171 86.1418 12.8685 88.0448C16.8741 91.5878 21.418 94.0372 25.5941 94.905C29.1071 95.6346 38.0874 95.5159 38.0874 94.7397C38.0874 94.6077 36.7703 94.4257 35.1602 94.3351C28.3475 93.9517 21.0346 90.2994 16.2974 84.9141C12.5137 80.6127 9.80113 75.7251 8.68399 71.1959C7.67284 67.0956 7.07959 61.976 7.30837 59.3242C7.42245 58.0026 7.44016 56.9215 7.34769 56.9215C7.25522 56.9215 6.99133 57.3251 6.76106 57.818Z" fill="url(#paint4_linear_1584_1472)"/>
<defs>
<linearGradient id="paint0_linear_1584_1472" x1="73.3681" y1="0.521929" x2="73.3681" y2="117.311" gradientUnits="userSpaceOnUse">
<stop stop-color="#31628B"/>
<stop offset="0.331731" stop-color="#2E92CE"/>
</linearGradient>
<linearGradient id="paint1_linear_1584_1472" x1="73.232" y1="0.521896" x2="73.232" y2="117.311" gradientUnits="userSpaceOnUse">
<stop stop-color="#3B4350"/>
<stop offset="0.331731" stop-color="#C2C5CA"/>
</linearGradient>
<linearGradient id="paint2_linear_1584_1472" x1="63.8042" y1="58.2226" x2="59.2578" y2="58.2226" gradientUnits="userSpaceOnUse">
<stop stop-color="#383F4F" stop-opacity="0.56"/>
<stop offset="0.326923" stop-color="#BABDC2"/>
</linearGradient>
<linearGradient id="paint3_linear_1584_1472" x1="73.148" y1="0.159006" x2="73.148" y2="116.948" gradientUnits="userSpaceOnUse">
<stop stop-color="#31628B"/>
<stop offset="0.331731" stop-color="#2E92CE"/>
</linearGradient>
<linearGradient id="paint4_linear_1584_1472" x1="73.2136" y1="0.48452" x2="73.2136" y2="117.274" gradientUnits="userSpaceOnUse">
<stop stop-color="#1E5D98"/>
<stop offset="0.331731" stop-color="#1F539E"/>
</linearGradient>
</defs>
</svg>
