<svg width="52" height="76" viewBox="0 0 52 76" fill="none" xmlns="http://www.w3.org/2000/svg">
<path fill-rule="evenodd" clip-rule="evenodd" d="M19.895 22.0976C18.5624 23.9311 16.4531 27.1034 15.0521 29.3811C13.252 32.3075 11.5102 35.8904 10.3494 39.0545C8.24576 44.7887 8.15223 51.5695 10.103 56.9465C12.247 62.857 15.9522 67.2491 21.1054 69.9886C24.2829 71.6777 26.7873 72.2765 30.6005 72.259C35.8261 72.2347 39.8129 70.7603 43.7047 67.4127C47.0602 64.5263 49.3514 60.8647 50.525 56.5137C51.4308 53.1547 51.2589 52.4371 50.1074 54.7709C48.94 57.1375 48.3252 58.0453 46.5529 60.0213C43.1879 63.7728 39.0326 65.945 33.6342 66.7748C31.1958 67.1496 28.5621 66.8714 25.7865 65.9458C17.8306 63.2929 12.82 53.96 14.4368 44.8052C15.2239 40.3495 17.8937 34.8068 22.1587 28.7751C23.1459 27.3787 24.2383 25.8128 24.5861 25.2952L25.2182 24.3546L24.72 23.4525C24.446 22.9563 23.9682 22.2667 23.6584 21.92C23.3486 21.5734 22.9183 20.9645 22.702 20.5668C22.4855 20.169 22.1342 19.8438 21.921 19.8438C21.7079 19.8438 20.7961 20.8581 19.895 22.0976Z" fill="white"/>
<path fill-rule="evenodd" clip-rule="evenodd" d="M24.8553 2.54148C23.9742 3.6741 23.253 4.71933 23.253 4.8642C23.253 5.00906 23.4933 5.40602 23.7871 5.74653C24.081 6.08678 24.7485 6.92142 25.2707 7.60114C25.793 8.28087 26.4111 9.05597 26.6444 9.32353C27.3335 10.1138 35.3737 20.6051 36.6648 22.3992C37.3176 23.306 38.0919 24.3043 38.3858 24.6175C38.6797 24.9307 38.9199 25.3119 38.9199 25.4645C38.9199 25.6171 38.9999 25.795 39.0979 25.8597C39.3932 26.0553 39.1269 23.9386 39.1269 23.0206C39.1269 22.2925 39.1269 21.1031 39.1269 20.2634C39.1269 19.2689 39.1269 19.041 39.1269 18.3966C38.8758 18.0136 38.7894 17.6233 38.4387 17.0975C38.43 16.7938 36.0355 13.2717 33.4719 9.79086C32.6888 8.72758 31.3027 6.81367 30.3917 5.53774C29.4808 4.2618 28.223 2.60231 27.5966 1.84989L26.4576 0.481934L24.8553 2.54148ZM20.1199 8.56648C18.064 11.1655 18.1504 10.9645 18.7393 11.7805C19.0237 12.1749 20.3017 13.7733 21.5795 15.3328C22.8571 16.8923 24.4563 18.9222 25.1331 19.8437C25.8098 20.7652 26.619 21.8672 26.9309 22.2925C27.2431 22.7178 28.058 23.8777 28.7421 24.8701C29.426 25.8625 30.1752 26.9065 30.4066 27.19C31.1857 28.1442 32.5385 30.1963 32.801 30.8222C32.9444 31.1637 33.1388 31.4431 33.2331 31.4431C33.3273 31.4431 33.6919 32.0811 34.0432 32.8608C34.7126 34.3463 35.062 34.785 34.6079 33.5697C34.2989 32.743 34.3347 27.7285 34.6583 26.5033C34.8185 25.897 34.7914 25.5671 34.5576 25.2725C34.382 25.0513 33.9319 24.2901 33.5578 23.5813C33.1835 22.8724 32.2273 21.3645 31.4328 20.2303C30.6383 19.0962 29.8882 17.9808 29.7659 17.7519C29.4737 17.2055 26.3525 12.9433 23.7468 9.53309C23.3677 9.0369 22.7716 8.25381 22.422 7.79318C22.0726 7.33255 21.6982 6.95544 21.5904 6.95544C21.4824 6.95544 20.8206 7.68054 20.1199 8.56648Z" fill="white"/>
<path fill-rule="evenodd" clip-rule="evenodd" d="M41.7304 38.5276C41.9061 42.2652 41.476 45.456 40.4434 48.0757C39.9926 49.2197 39.3828 50.5046 39.0887 50.9312C38.7946 51.3578 38.1938 52.4028 37.7537 53.2534C35.5216 57.5669 30.634 60.4433 26.3724 59.9509C23.5265 59.6225 20.4468 58.1345 18.8008 56.293C17.8705 55.2521 17.9301 55.8566 18.9102 57.4055C20.725 60.2737 23.9495 62.7905 27.1187 63.8125C28.5007 64.2582 31.848 64.3363 33.6511 63.9648C34.3015 63.8308 35.6781 63.2908 36.7102 62.7647C38.2237 61.9932 38.9769 61.38 40.6062 59.5929C44.0378 55.829 45.5655 51.5269 45.2752 46.4453C45.1976 45.0859 44.9597 43.2779 44.747 42.4273C44.3112 40.6851 42.689 37.0065 42.0333 36.2742C41.6156 35.8074 41.6058 35.8795 41.7304 38.5276Z" fill="white"/>
<path fill-rule="evenodd" clip-rule="evenodd" d="M49.5782 41.0161C49.4458 44.5828 48.8224 50.3186 48.5081 50.864C48.4227 51.0122 48.3308 51.2494 48.3042 51.3912C48.2774 51.5329 48.1421 52.2668 48.0035 53.022C47.8648 53.7773 47.6904 54.5024 47.6158 54.6331C47.5415 54.764 47.5669 54.8681 47.6726 54.8648C48.0429 54.8529 49.864 51.6311 50.5104 49.8446C51.0974 48.2214 51.1634 47.7167 51.1677 44.8181C51.172 41.9629 51.097 41.354 50.5095 39.4695C50.1451 38.3 49.817 37.343 49.7807 37.343C49.7444 37.343 49.6532 38.9957 49.5782 41.0161Z" fill="white"/>
<path fill-rule="evenodd" clip-rule="evenodd" d="M16.1363 13.4617C16.0319 13.6538 15.6003 14.2629 15.1771 14.815C11.2077 19.9968 6.62915 27.3777 4.45976 32.0919C2.94031 35.3942 1.84031 38.7139 1.0978 42.2386C0.666958 44.2835 0.730812 49.7086 1.21126 51.9063C2.08101 55.8842 2.1216 55.8888 2.45037 52.0432C2.77486 48.2489 3.24677 46.4737 5.0411 42.2984C6.76992 38.2747 11.2563 29.7685 12.0053 29.0941C12.0841 29.0233 12.682 28.0953 13.3343 27.032C14.4702 25.1802 16.3607 22.3977 18.6245 19.2444C19.9061 17.4594 19.8724 17.1194 18.2041 15.0029C17.5523 14.176 17.018 13.4122 17.0168 13.306C17.0132 12.9748 16.336 13.0944 16.1363 13.4617Z" fill="white"/>
<path fill-rule="evenodd" clip-rule="evenodd" d="M6.06618 45.784C5.88411 46.1738 5.42929 47.4789 5.05542 48.6839C4.42399 50.7179 4.3751 51.161 4.3713 54.8703C4.3675 58.6019 4.41023 58.9894 5.0172 60.7414C5.85514 63.159 6.24824 63.9699 7.4121 65.6812C8.81286 67.7407 9.19409 68.1787 10.8951 69.6833C14.0622 72.4846 17.6549 74.4212 20.9568 75.1074C23.7344 75.6843 30.8348 75.5905 30.8348 74.9767C30.8348 74.8723 29.7934 74.7285 28.5204 74.6568C23.1338 74.3537 17.3518 71.466 13.6062 67.2079C10.6145 63.807 8.46985 59.9426 7.58657 56.3614C6.78709 53.1195 6.31803 49.0716 6.49891 46.9749C6.58912 45.9299 6.60312 45.0752 6.53001 45.0752C6.45689 45.0752 6.24824 45.3943 6.06618 45.784Z" fill="white"/>
</svg>
