<svg width="124" height="115" viewBox="0 0 124 115" fill="none" xmlns="http://www.w3.org/2000/svg">
<path d="M75.2286 23.3988L71.1983 20.9806C70.578 20.6085 69.8057 20.5976 69.1753 20.9523L54.5475 29.1804C54.316 29.3106 54.0239 29.1848 53.9595 28.9271L53.1573 25.7183C53.1123 25.5385 53.1958 25.3514 53.3595 25.2647L70.195 16.3518L98.3832 32.4593V25.4123L70.195 8.29802L43.9439 24.2362C42.7412 24.9664 42.0068 26.2714 42.0068 27.6784V35.5614C42.0068 38.6591 45.3584 40.5968 48.043 39.0512L75.2286 23.3988Z" fill="#003F5F"/>
<path d="M84.4511 86.9016L88.5605 84.6203C89.1929 84.2692 89.5884 83.6058 89.5965 82.8825L89.7847 66.1005C89.7876 65.8348 90.0426 65.6448 90.2981 65.7178L93.4781 66.6275C93.6562 66.6785 93.7765 66.8443 93.7697 67.0295L93.0708 86.0659L65.0272 102.424L71.1301 105.947L100.046 90.0928L99.3683 59.3895C99.3372 57.9829 98.5743 56.6944 97.3558 55.9909L90.5289 52.0494C87.8462 50.5005 84.4923 52.4342 84.4886 55.532L84.4511 86.9016Z" fill="#003F5F"/>
<path d="M24.4364 63.4236L24.3792 68.1234C24.3704 68.8467 24.7503 69.5191 25.3744 69.8849L39.8536 78.3715C40.0829 78.5059 40.1214 78.8215 39.9313 79.0071L37.5642 81.3173C37.4316 81.4466 37.2279 81.4689 37.0705 81.3712L20.887 71.3229L20.5912 38.8585L14.5048 42.4104L13.9311 75.3823L40.928 90.0218C42.1648 90.6924 43.662 90.669 44.8772 89.9598L51.6857 85.9865C54.3612 84.4252 54.3455 80.5538 51.6574 79.0142L24.4364 63.4236Z" fill="#003F5F"/>
<path d="M99.3438 52.6731L99.4228 47.9736C99.435 47.2503 99.0582 46.5761 98.4359 46.2075L83.9963 37.6535C83.7676 37.5181 83.7306 37.2023 83.9216 37.0176L86.2994 34.7184C86.4326 34.5897 86.6364 34.5684 86.7933 34.6668L102.93 44.7903L103.074 77.2558L109.177 73.7323L109.905 40.7635L82.9762 25.9984C81.7425 25.3219 80.2452 25.3384 79.0267 26.0419L72.1998 29.9835C69.5171 31.5323 69.5148 35.4037 72.1956 36.9558L99.3438 52.6731Z" fill="#003F5F"/>
<path d="M47.0399 93.1494L51.0703 95.5676C51.6906 95.9398 52.4628 95.9506 53.0933 95.596L67.721 87.3679C67.9526 87.2376 68.2447 87.3634 68.3091 87.6212L69.1113 90.83C69.1562 91.0097 69.0728 91.1969 68.909 91.2835L52.0735 100.196L23.8854 84.0889L23.8854 91.136L52.0735 108.25L78.3247 92.312C79.5274 91.5818 80.2617 90.2769 80.2617 88.8699L80.2617 80.9869C80.2617 77.8891 76.9101 75.9514 74.2256 77.4971L47.0399 93.1494Z" fill="#003F5F"/>
<path d="M37.5631 27.8399L33.4643 30.1402C32.8335 30.4943 32.4411 31.1595 32.4364 31.8829L32.3264 48.6656C32.3247 48.9313 32.0706 49.1225 31.8148 49.0506L28.6306 48.1558C28.4522 48.1056 28.3311 47.9403 28.337 47.7552L28.9473 28.7157L56.9145 12.2274L50.7952 8.73231L21.9539 24.7213L22.7742 55.4211C22.8118 56.8276 23.5807 58.1125 24.8024 58.8103L31.6476 62.72C34.3375 64.2563 37.6824 62.307 37.6717 59.2093L37.5631 27.8399Z" fill="#003F5F"/>
</svg>
