<svg width="99" height="91" viewBox="0 0 99 91" fill="none" xmlns="http://www.w3.org/2000/svg">
<path d="M59.4802 18.454L56.2935 16.542C55.8031 16.2477 55.1925 16.2392 54.694 16.5196L43.1284 23.0252C42.9453 23.1282 42.7144 23.0288 42.6634 22.8249L42.0291 20.2878C41.9936 20.1458 42.0596 19.9978 42.1891 19.9292L55.5003 12.8821L77.7877 25.6178V20.0459L55.5003 6.51428L34.7444 19.1161C33.7935 19.6934 33.2129 20.7252 33.2129 21.8376V28.0705C33.2129 30.5197 35.8629 32.0518 37.9855 30.8297L59.4802 18.454Z" fill="white"/>
<path d="M66.7724 68.6634L70.0215 66.8597C70.5216 66.5821 70.8343 66.0575 70.8407 65.4856L70.9895 52.2167C70.9918 52.0066 71.1934 51.8564 71.3954 51.9141L73.9097 52.6334C74.0505 52.6737 74.1457 52.8048 74.1403 52.9512L73.5877 68.0026L51.4146 80.9362L56.24 83.7222L79.1024 71.1865L78.5669 46.9105C78.5423 45.7983 77.9391 44.7796 76.9757 44.2234L71.5779 41.107C69.4568 39.8823 66.805 41.4112 66.802 43.8605L66.7724 68.6634Z" fill="white"/>
<path d="M19.3208 50.1001L19.2756 53.816C19.2686 54.3879 19.569 54.9196 20.0624 55.2088L31.5106 61.9189C31.6919 62.0251 31.7224 62.2747 31.572 62.4214L29.7005 64.248C29.5957 64.3503 29.4346 64.3679 29.3101 64.2906L16.5144 56.3458L16.2806 30.6774L11.4682 33.4857L11.0146 59.5554L32.3601 71.1303C33.338 71.6606 34.5218 71.6421 35.4826 71.0814L40.8658 67.9398C42.9813 66.7053 42.9688 63.6444 40.8435 62.4271L19.3208 50.1001Z" fill="white"/>
<path d="M78.5475 41.6001L78.61 37.8844C78.6196 37.3125 78.3217 36.7794 77.8296 36.4879L66.4128 29.7246C66.232 29.6175 66.2027 29.3678 66.3537 29.2218L68.2338 27.404C68.3391 27.3021 68.5002 27.2853 68.6243 27.3631L81.3829 35.3674L81.4972 61.0367L86.3226 58.2508L86.8976 32.1835L65.6062 20.5093C64.6308 19.9745 63.4469 19.9875 62.4835 20.5438L57.0857 23.6602C54.9646 24.8848 54.9627 27.9458 57.0824 29.173L78.5475 41.6001Z" fill="white"/>
<path d="M37.1927 73.6033L40.3793 75.5153C40.8698 75.8095 41.4804 75.8181 41.9788 75.5377L53.5445 69.032C53.7276 68.929 53.9585 69.0285 54.0094 69.2323L54.6437 71.7694C54.6792 71.9115 54.6132 72.0595 54.4838 72.128L41.1726 79.1751L18.8852 66.4395L18.8852 72.0113L41.1726 85.543L61.9284 72.9412C62.8793 72.3639 63.46 71.3321 63.46 70.2196L63.46 63.9868C63.46 61.5375 60.81 60.0054 58.6874 61.2275L37.1927 73.6033Z" fill="white"/>
<path d="M29.7 21.9653L26.4593 23.7842C25.9605 24.0641 25.6503 24.5901 25.6465 25.162L25.5596 38.4315C25.5582 38.6416 25.3573 38.7928 25.155 38.7359L22.6374 38.0284C22.4964 37.9888 22.4006 37.8581 22.4053 37.7117L22.8878 22.6578L45.0005 9.6211L40.1622 6.85767L17.3584 19.4996L18.007 43.7729C18.0367 44.8849 18.6446 45.9008 19.6106 46.4526L25.0229 49.5438C27.1497 50.7586 29.7943 49.2173 29.7859 46.7681L29.7 21.9653Z" fill="white"/>
</svg>
